<?xml version="1.0" encoding="UTF-8"?>
<svg version="1.1" viewBox="0 0 1600 1600" width="1280" height="1280" xmlns="http://www.w3.org/2000/svg">
<path transform="translate(0)" d="m0 0h1600v1600h-1600v-1600z" fill="#FCFCFC"/>
<path transform="translate(957 831)" d="m0 0c1.06-0.00136 2.11-0.00273 3.2-0.00414 3.42-0.00201 6.83 0.00427 10.3 0.0119 1.75 0.00183 1.75 0.00183 3.53 0.00369 15.8 0.0194 31.6 0.166 47.5 0.559 1.25 0.0293 1.25 0.0293 2.53 0.0593 2.32 0.0561 4.63 0.12 6.95 0.187 1.29 0.0367 2.58 0.0733 3.91 0.111 2.85 0.205 2.85 0.205 3.85 1.21 1.5 11.3 1.16 22.9 1.2 34.3 0.0119 3.37 0.0314 6.74 0.0531 10.1 0.0611 9.57 0.116 19.1 0.149 28.7 0.021 5.88 0.0563 11.8 0.101 17.6 0.0141 2.23 0.0229 4.46 0.0261 6.68 0.00493 3.11 0.0281 6.23 0.0553 9.34-0.00301 0.909-0.00601 1.82-0.00911 2.75 0.108 8.37 2.02 15.9 7.43 22.5 9 8.52 20 10 32 10 14.6-0.664 28.9-3.47 42-10 0.909-0.396 1.82-0.791 2.75-1.2 18.9-8.58 32.4-24.9 40.2-43.8 8.89-24.9 9.12-51.5 1.59-76.7-0.219-0.754-0.438-1.51-0.663-2.28-0.202-0.662-0.404-1.32-0.612-2-0.391-2.55 0.0697-4.56 0.686-7.04 29.3-0.695 58.5-1.1 87.8-1.06 0.708 8.56e-4 1.42 0.00171 2.15 0.00259 8.68 0.0113 17.4 0.0312 26 0.0599 4.4 7.45 4.4 7.45 5.23 10.9 0.163 0.663 0.326 1.33 0.494 2.01 0.153 0.668 0.306 1.34 0.463 2.03 0.247 0.997 0.247 0.997 0.498 2.01 4.3 17.9 4.52 39.3-0.686 57-0.34 1.23-0.681 2.46-1.03 3.73-9 29.8-32.4 52.3-59.2 66.9-34.9 18.3-74.5 24-114 25-0.801 0.0203-1.6 0.0406-2.43 0.0616-21.9 0.543-43.8 0.523-65.6 0.497-3.5-0.00382-7.01-0.00586-10.5-0.00747-37.4-0.0201-74.8-0.215-112-0.527-3.8-0.0314-7.59-0.0611-11.4-0.0906-5.94-0.0468-11.9-0.0991-17.8-0.156-2.19-0.0204-4.38-0.0392-6.57-0.0563-2.98-0.0238-5.96-0.0538-8.94-0.0856-0.88-0.00575-1.76-0.0115-2.67-0.0174-5.96-0.0736-5.96-0.0736-7.07-1.19-0.473-7.32-0.473-7.32 1.1-9.57 2.78-2.09 5.18-2.01 8.62-2.27 0.66-0.0552 1.32-0.11 2-0.167 2.11-0.176 4.23-0.334 6.34-0.489 14.3-1.07 25.8-2.5 36.9-12.5 5.91-7.17 6.44-16.5 7.1-25.4 0.0841-1.1 0.168-2.2 0.255-3.33 0.751-10.5 0.951-21 0.977-31.5 0.0085-3.28 0.0292-6.57 0.0525-9.85 0.0555-8.12 0.0919-16.2 0.128-24.4 0.0312-6.94 0.0702-13.9 0.12-20.8 0.02-3.23 0.0284-6.47 0.0363-9.7 0.013-1.96 0.0265-3.92 0.0406-5.88-9.82e-4 -0.898-0.00196-1.8-0.00298-2.72 0.0623-6.15 0.0623-6.15 2.29-8.38 7.28-1.35 14.9-1.15 22.3-1.13z"/>
<path transform="translate(881 543)" d="m0 0c1.37-0.00596 1.37-0.00596 2.77-0.012 3.08-0.00966 6.16 0.00222 9.24 0.014 2.2-0.00243 4.41-0.00615 6.61-0.0111 6.01-0.00944 12 5.61e-5 18 0.0133 6.33 0.0113 12.7 0.0072 19 0.00525 10.7-8.85e-4 21.3 0.0101 32 0.0286 10.9 0.0188 21.8 0.0261 32.6 0.0205 13.2-0.0068 26.4-0.00327 39.5 0.0091 4.99 0.00457 9.98 0.00556 15 0.00341 24-0.00603 47.9 0.127 71.8 1.21 1.35 0.0593 1.35 0.0593 2.72 0.12 40.2 1.83 80.6 9.54 110 39.7 22.3 24.9 31.8 52.9 30.3 86.2-0.481 6.36-1.92 12.2-4.24 18.1-0.485 1.27-0.485 1.27-0.98 2.57-0.917 2.2-1.92 4.31-3.02 6.43-0.403 0.781-0.807 1.56-1.22 2.37-5.67 10.6-5.67 10.6-9.78 12.6-1.41 0.0918-2.82 0.122-4.23 0.12-0.886 0.00137-1.77 0.00275-2.69 0.00417-0.975-0.0036-1.95-0.00719-2.95-0.0109-1.02 1.46e-4 -2.05 2.92e-4 -3.1 4.43e-4 -3.4-6.99e-4 -6.8-0.00849-10.2-0.0163-2.35-0.00186-4.7-0.00329-7.05-0.00429-6.2-0.00382-12.4-0.0137-18.6-0.0247-6.32-0.0102-12.6-0.0148-19-0.0198-12.4-0.0107-24.8-0.0278-37.2-0.0488-1.13-3.7-1.13-3.7 0.0742-6.38 0.532-0.905 1.06-1.81 1.61-2.74 12.3-23.2 11.1-55.5 3.7-79.9-6.21-18.5-19.7-33.2-36.9-42-12.8-6.26-26.4-8.2-40.5-9.98-0.721-0.0986-1.44-0.197-2.19-0.299-6.27-0.796-12.5-0.85-18.8-0.826-1.57-0.0058-1.57-0.0058-3.18-0.0117-0.994 0.00129-1.99 0.00258-3.01 0.00391-0.901 0.00113-1.8 0.00226-2.73 0.00342-2.07-0.102-2.07-0.102-3.08 1.13-0.109 1.82-0.147 3.65-0.158 5.47-0.00979 1.19-0.0196 2.38-0.0297 3.6-0.00576 1.31-0.0115 2.63-0.0174 3.98-0.00957 1.39-0.0196 2.78-0.03 4.17-0.0271 3.78-0.0481 7.57-0.068 11.3-0.0218 3.95-0.0492 7.9-0.0761 11.8-0.05 7.48-0.0949 15-0.138 22.5-0.0493 8.52-0.104 17-0.16 25.6-0.114 17.5-0.221 35.1-0.323 52.6-13.8 0.0233-27.6 0.0409-41.4 0.0518-6.41 0.00523-12.8 0.0123-19.2 0.0236-6.18 0.0108-12.4 0.0168-18.5 0.0194-2.36 0.00185-4.73 0.00548-7.09 0.0109-3.3 0.00721-6.59 0.00826-9.89 0.0078-1.48 0.00539-1.48 0.00539-2.99 0.0109-0.893-0.00137-1.79-0.00275-2.71-0.00417-1.17 0.00138-1.17 0.00138-2.37 0.00279-1.78-0.123-1.78-0.123-2.78-1.12-0.115-2.9-0.165-5.77-0.174-8.67-0.00669-0.911-0.0134-1.82-0.0203-2.76-0.0141-1.99-0.026-3.98-0.0359-5.97-0.0164-3.18-0.0397-6.36-0.0649-9.54-0.0706-9.05-0.13-18.1-0.182-27.1-0.0713-30.2-0.0713-30.2-1.31-60.4-0.0894-1.57-0.0894-1.57-0.181-3.18-0.73-9.44-3.17-18.6-9.85-25.6-12-9.8-26.1-10.2-40.8-11-1.17-0.0748-2.34-0.15-3.55-0.227-1.06-0.0606-2.13-0.121-3.22-0.184-2.56-0.379-2.56-0.379-4.56-2.38-0.578-7.28-0.578-7.28 1.28-9.6 3-2.45 6.84-1.81 10.6-1.77z"/>
<path transform="translate(303 543)" d="m0 0c0.846 0.00514 1.69 0.0103 2.56 0.0156 1.34-0.00362 1.34-0.00362 2.72-0.00732 3.02-0.00566 6.05 0.00305 9.07 0.0116 2.16-0.00107 4.32-0.00301 6.49-0.00575 5.9-0.00487 11.8 0.00284 17.7 0.013 6.19 0.00879 12.4 0.00702 18.6 0.00664 10.4 9.39e-4 20.9 0.00958 31.3 0.0233 12 0.0157 24 0.021 36 0.0203 12.8-6.83e-4 25.6 0.00631 38.5 0.0154 3.65 0.00211 7.31 0.00284 11 0.00324 162 0.0345 162 0.0345 205 42.4 11.1 11.3 18.8 23.5 25.4 37.8 0.615 1.27 0.615 1.27 1.24 2.57 11.4 25.5 9.74 57.3 2.5 83.6-0.746 1.8-0.746 1.8-2.75 2.8-1.43 0.0919-2.87 0.122-4.3 0.12-1.35 0.00206-1.35 0.00206-2.74 0.00417-0.993-0.0036-1.99-0.00719-3.01-0.0109-1.04 1.46e-4 -2.09 2.92e-4 -3.16 4.43e-4 -3.46-6.99e-4 -6.93-0.00849-10.4-0.0163-2.4-0.00186-4.79-0.00329-7.19-0.00429-6.32-0.00382-12.6-0.0137-18.9-0.0247-6.44-0.0102-12.9-0.0148-19.3-0.0198-12.6-0.0107-25.3-0.0276-37.9-0.0488-1.12-3.35-0.864-4.72-0.223-8.14 5.95-33.6 6.23-72.3-13.7-102-1.64-2.13-3.33-4.18-5.1-6.2-1.16-1.47-1.16-1.47-2.34-2.96-14.3-17.1-39.2-21.6-60.2-23.6-8.81-0.724-17.6-0.657-26.5-0.603-3.15 0.0187-6.3 0.0205-9.46 0.0203-2.01 0.0049-4.01 0.0107-6.02 0.0176-0.941 0.00111-1.88 0.00223-2.85 0.00337-0.86 0.00638-1.72 0.0128-2.6 0.0193-1.14 0.00572-1.14 0.00572-2.3 0.0116-1.77-0.0537-1.77-0.0537-2.74 1.13-0.124 2.27-0.178 4.55-0.205 6.82-0.0099 0.717-0.0198 1.43-0.03 2.17-0.0319 2.4-0.0565 4.8-0.0811 7.21-0.0206 1.69-0.0416 3.38-0.063 5.07-0.0558 4.53-0.105 9.07-0.153 13.6-0.0302 2.8-0.0624 5.6-0.0955 8.41-0.276 23.4-0.505 46.8-0.335 70.2 0.0064 1.25 0.0064 1.25 0.0129 2.52 0.00788 1.47 0.0198 2.93 0.038 4.4 0.0356 7.23-0.563 14.4-1.09 21.6-13.8 0.0233-27.6 0.0409-41.4 0.0518-6.41 0.00523-12.8 0.0123-19.2 0.0236-6.18 0.0108-12.4 0.0168-18.5 0.0194-2.36 0.00185-4.73 0.00548-7.09 0.0109-3.3 0.00721-6.59 0.00826-9.89 0.0078-1.48 0.00539-1.48 0.00539-2.99 0.0109-0.893-0.00137-1.79-0.00275-2.71-0.00417-1.17 0.00138-1.17 0.00138-2.37 0.00279-1.78-0.123-1.78-0.123-2.78-1.12-0.103-1.37-0.138-2.75-0.145-4.13-0.0069-0.891-0.0138-1.78-0.0209-2.7-0.00261-0.986-0.00523-1.97-0.00792-2.99-0.00669-1.03-0.0134-2.07-0.0203-3.13-0.0141-2.25-0.026-4.51-0.0359-6.76-0.0164-3.58-0.0396-7.17-0.0649-10.8-0.0707-10.2-0.13-20.4-0.182-30.6-0.0321-6.23-0.0735-12.5-0.12-18.7-0.0159-2.36-0.0283-4.72-0.0369-7.09-0.0406-11-0.133-21.9-1.2-32.8-0.0686-0.741-0.137-1.48-0.208-2.24-0.838-7.43-3.04-13.4-7.96-19.2v-2c-0.577-0.268-1.15-0.536-1.75-0.812-2.25-1.19-2.25-1.19-3.98-2.6-10.3-7.21-24.2-7.36-36.3-7.95-1.7-0.0869-1.7-0.0869-3.43-0.176-1.02-0.0415-2.04-0.083-3.09-0.126-2.45-0.331-2.45-0.331-4.45-2.33-0.266-2.09-0.266-2.09-0.25-4.5-0.00516-0.794-0.0103-1.59-0.0156-2.41 0.624-4.92 4.12-4.33 8.25-4.36z"/>
<path transform="translate(527,831)" d="m0 0c15.5-0.234 31-0.41 46.5-0.518 7.2-0.0515 14.4-0.122 21.6-0.236 6.28-0.0999 12.6-0.164 18.8-0.186 3.32-0.013 6.64-0.0487 9.97-0.116 3.72-0.0727 7.43-0.0826 11.1-0.078 1.09-0.036 2.19-0.0719 3.31-0.109 4.67 0.0629 7.48 0.224 11 3.42 2.04 2.53 3.84 5.09 5.58 7.83 0.899 1.24 1.8 2.47 2.72 3.69 0.783 1.1 1.56 2.21 2.34 3.31 0.423 0.597 0.846 1.19 1.28 1.81 2.96 4.18 5.89 8.38 8.82 12.6 3.48 4.95 7.01 9.87 10.5 14.8 2.52 3.52 5.04 7.05 7.56 10.6 2.03 2.84 4.06 5.69 6.1 8.53 4.97 6.93 9.88 13.9 14.8 20.9 4.89 6.99 9.82 13.9 14.9 20.8 0.847 1.17 1.69 2.33 2.54 3.5 20.5 28.8 20.5 28.8 51.5 44.5 1.78 0.568 3.55 1.15 5.31 1.75 1.22 0.413 2.43 0.825 3.69 1.25v11c-22.4 0.304-44.9 0.583-67.3 0.819-1.91 0.0202-3.83 0.0404-5.74 0.0606-0.933 0.00985-1.87 0.0197-2.83 0.0299-5.9 0.0634-11.8 0.137-17.7 0.218-6.86 0.0945-13.7 0.164-20.6 0.214-2.46 0.0219-4.92 0.0526-7.38 0.0923-3.38 0.0531-6.75 0.0752-10.1 0.0891-1.46 0.0339-1.46 0.0339-2.94 0.0686-4.34-0.0137-7.38-0.116-10.8-2.89-1.96-2.09-3.78-4.05-5.39-6.41-0.471-0.679-0.941-1.36-1.43-2.06-0.725-1.07-0.725-1.07-1.46-2.17-1.06-1.53-2.11-3.06-3.17-4.59-0.52-0.758-1.04-1.52-1.58-2.3-2.13-3.09-4.31-6.13-6.5-9.18-5.19-7.25-10.3-14.5-15.5-21.8-2.51-3.56-5.02-7.12-7.53-10.7-1-1.42-2-2.83-3-4.25-0.495-0.701-0.99-1.4-1.5-2.12-16.5-23.4-16.5-23.4-18-25.5-0.998-1.41-2-2.83-3-4.24-2.53-3.58-5.05-7.16-7.57-10.7-4.58-6.5-9.17-13-13.8-19.5-4.13-5.76-8.19-11.6-12.2-17.4-4.88-6.99-9.81-14-14.9-20.8 0.66-1.32 1.32-2.64 2-4z"/>
<path transform="translate(394 831)" d="m0 0c2.02-6.75e-4 4.04-0.00165 6.06-0.0029 4.2-0.00146 8.4 6.41e-4 12.6 0.00534 5.4 0.00574 10.8 0.00238 16.2-0.00357 4.16-0.0036 8.31-0.00247 12.5 1.28e-4 1.99 6.68e-4 3.98-1.56e-4 5.98-0.00248 2.77-0.00252 5.53 0.00131 8.3 0.0069 0.827-0.00202 1.65-0.00405 2.51-0.00613 5.64 0.0213 5.64 0.0213 6.75 1.14 0.916 6.5 1.16 12.9 1.17 19.4 0.00669 1 0.0134 2 0.0203 3.03 0.014 2.16 0.0259 4.32 0.0359 6.48 0.0165 3.43 0.0398 6.87 0.0649 10.3 0.0704 9.76 0.131 19.5 0.182 29.3 0.032 5.98 0.0733 12 0.12 17.9 0.0159 2.27 0.0283 4.53 0.0369 6.8-0.97 27.3-0.97 27.3 10.7 50.6 13.3 11 31.4 11.1 47.8 11.9 2.82 0.246 2.82 0.246 3.82 1.25 0.0723 1.85 0.0838 3.71 0.0625 5.56-0.00902 1.01-0.018 2.02-0.0273 3.07-0.0174 1.17-0.0174 1.17-0.0352 2.37-7.31 0.135-14.6 0.266-21.9 0.391-3.4 0.0585-6.8 0.119-10.2 0.182-43.3 0.799-86.6 0.407-130 0.0714-0.702-0.00544-1.4-0.0109-2.13-0.0165-0.703-0.00545-1.41-0.0109-2.13-0.0165-5.82-0.0448-11.6-0.0844-17.5-0.123-5.69-0.0381-11.4-0.08-17.1-0.125-3.37-0.0264-6.73-0.0513-10.1-0.0722-3.7-0.0239-7.4-0.0539-11.1-0.0856-1.1-0.00576-2.21-0.0115-3.35-0.0174-0.997-0.00979-1.99-0.0196-3.02-0.0297-0.87-0.00645-1.74-0.0129-2.64-0.0196-1.97-0.139-1.97-0.139-2.97-1.14-0.168-2-0.168-2-0.188-4.44-0.0142-0.803-0.0284-1.61-0.043-2.43 0.23-2.13 0.23-2.13 2.23-4.13 2.91-0.455 2.91-0.455 6.62-0.746 1.36-0.117 2.72-0.233 4.08-0.35 2.13-0.172 4.27-0.34 6.4-0.506 13.5-1.07 26.2-2.67 35.8-13.3 4.61-6.65 5.71-12.5 6.29-20.4 0.0796-1 0.159-2.01 0.241-3.04 0.769-10.5 0.903-21.1 0.928-31.6 0.00846-3.46 0.0291-6.92 0.0525-10.4 0.0557-8.56 0.0918-17.1 0.128-25.7 0.0312-7.3 0.0702-14.6 0.12-21.9 0.0201-3.41 0.0284-6.82 0.0363-10.2 0.013-2.07 0.0265-4.14 0.0406-6.21-9.82e-4 -0.948-0.00196-1.9-0.00298-2.87 0.00827-0.861 0.0165-1.72 0.0251-2.61 0.0044-1.12 0.0044-1.12 0.00889-2.27 0.256-1.84 0.256-1.84 2.26-3.84 11.1-1.97 22.9-1.15 34.1-1.13z"/>
<path transform="translate(806,746)" d="m0 0c3.04 2.59 5.82 5.87 6.17 9.95 0.0405 4.77-0.329 8.56-2.17 13 0.804 0.619 1.61 1.24 2.44 1.88 3.17 3.16 3.41 6.35 3.63 10.7-0.125 4.32-1.05 7.21-3.82 10.5-6.79 5.77-19.9 4.43-28.3 3.91-1.59-1.59-1.16-3.26-1.19-5.47-0.0161-0.951-0.0321-1.9-0.0487-2.88-0.0443-4.35-0.0855-8.71-0.109-13.1-0.0166-2.3-0.0439-4.6-0.082-6.9-0.0546-3.31-0.0766-6.61-0.0913-9.92-0.0227-1.03-0.0453-2.06-0.0687-3.13 0.00786-2.64 0.0501-5.05 0.592-7.63 5.82-5.21 16.1-3.84 23-1z"/>
<path transform="translate(1210 753)" d="m0 0c4.99 4.84 7.96 11.3 8.19 18.2-0.385 6.31-2.15 10.9-6.88 15.1-5.9 4.6-11.2 5.6-18.6 4.69-5.45-1.75-9.19-4.74-13-9-0.66-0.66-1.32-1.32-2-2-1.94-5.81-1.61-12 0.188-17.8 3.62-6.36 8.35-9.76 15-12.5 6.4-1.15 11.6-0.0386 17.1 3.31z" fill="#FDFDFD"/>
<path transform="translate(390 744)" d="m0 0c1.66 0.118 1.66 0.118 3.34 0.238 4.11 0.584 7 1.25 9.92 4.29 0.49 0.692 0.98 1.38 1.48 2.1 0.5 0.69 1 1.38 1.52 2.09 2.48 3.97 2.62 7.38 2.23 12-2.6 6.28-6.06 8.87-12 12 1.75 5.12 4.75 8.53 8.22 12.6 1.67 2.26 2.37 3.66 2.78 6.4-4.93-0.422-6.8-2.34-10-6-3.74-4.48-7.02-8.46-9-14-1.98 0.66-3.96 1.32-6 2-0.33 5.61-0.66 11.2-1 17h-5c-1-1-1-1-1.11-3.55 0.0641-8.83 0.187-17.7 0.428-26.5 0.039-1.49 0.0737-2.98 0.104-4.47 0.0454-2.19 0.103-4.37 0.164-6.56 0.0314-1.28 0.0628-2.57 0.0952-3.89 0.319-3.03 0.319-3.03 2.32-5.03 3.92-1.14 7.45-1 11.5-0.688z"/>
<path transform="translate(863 744)" d="m0 0c5.77 1.58 9.23 4.54 12.4 9.57 1.65 4.94 1.79 9.91-0.0625 14.8-2.67 3.02-5.32 4.41-8.94 6.19h-2c0.435 4.94 3 7.94 6.06 11.6 4.94 5.98 4.94 5.98 4.94 9.38-4.82-0.146-7.09-2.57-10.2-5.89-3.6-4.28-7-8.78-8.78-14.1h-6c-0.33 6.6-0.66 13.2-1 20-1.65-0.33-3.3-0.66-5-1-0.101-6.78-0.171-13.6-0.22-20.3-0.0201-2.31-0.0474-4.62-0.082-6.92-0.0484-3.31-0.0712-6.63-0.0889-9.94-0.0206-1.03-0.0413-2.07-0.0626-3.13-3.02e-4 -0.961-6.04e-4 -1.92-9.16e-4 -2.91-0.00888-0.846-0.0178-1.69-0.0269-2.56 0.481-2.18 0.481-2.18 2.34-3.95 4.88-2.8 11.4-1.7 16.7-0.795z"/>
<path transform="translate(1049 750)" d="m0 0c7.6 0.234 12.9 1.65 18.4 7.25 4.51 5.57 4.61 10.6 4.38 17.7-0.688 5.96-2.59 8.87-7.32 12.7-4.75 2.52-8.98 2.76-14.3 2.75-1.59 0.00387-1.59 0.00387-3.2 0.00781-2.55-0.133-2.55-0.133-3.55-1.13-0.113-2.72-0.164-5.4-0.168-8.12-0.00333-0.815-0.00666-1.63-0.0101-2.47-0.00507-1.73-0.00741-3.46-0.00725-5.18-0.00219-2.65-0.0203-5.3-0.0393-7.95-0.00293-1.68-0.00492-3.35-0.00586-5.03-0.00719-0.796-0.0144-1.59-0.0218-2.41 0.0321-7.69 0.0321-7.69 5.88-8.09z" fill="#FDFDFD"/>
<path transform="translate(1125,742)" d="m0 0h1c0.147 0.818 0.147 0.818 0.297 1.65 0.973 4.91 2.39 9.14 4.51 13.7 1.49 3.36 2.74 6.8 4 10.2 2.39 6.54 5.07 12.9 8 19.2 1.55 3.4 2.18 5.41 2.18 9.23-2.25 0.0625-2.25 0.0625-5-1-1.29-2.19-2.2-4.4-3.11-6.77-0.897-2.45-0.897-2.45-2.89-5.23-2.13-0.415-2.13-0.415-4.57-0.293-0.896 0.00967-1.79 0.0193-2.71 0.0293-1.41 0.0377-1.41 0.0377-2.84 0.0762-1.42 0.0203-1.42 0.0203-2.86 0.041-2.34 0.0354-4.67 0.0848-7.01 0.146-0.815 1.6-1.63 3.21-2.44 4.81-0.452 0.893-0.905 1.79-1.37 2.71-1.27 2.52-1.27 2.52-2.19 5.48-1.65-0.33-3.3-0.66-5-1 0.659-4.05 1.93-7.53 3.51-11.3 0.508-1.22 1.02-2.43 1.54-3.69 0.545-1.29 1.09-2.59 1.64-3.88 1.1-2.62 2.19-5.24 3.29-7.86 0.267-0.637 0.533-1.27 0.808-1.93 2.45-5.85 4.77-11.8 7.03-17.7 1.14-2.56 2.35-4.54 4.18-6.65z"/>
<path transform="translate(454,745)" d="m0 0h3c4.01 8.57 7.66 17.3 11.2 26 0.945 2.3 1.89 4.6 2.84 6.9 0.609 1.48 1.22 2.96 1.83 4.44 0.28 0.678 0.56 1.36 0.849 2.06 1.56 3.82 2.98 7.65 4.23 11.6-3.2 0-4.39-0.237-7-2-1.23-2.35-1.23-2.35-2.19-5.06-0.979-3.23-0.979-3.23-2.81-5.94-1.49-0.0867-2.98-0.107-4.47-0.0977-1.35 0.00483-1.35 0.00483-2.72 0.00977-0.946 0.00838-1.89 0.0168-2.87 0.0254-0.949 0.00451-1.9 0.00902-2.88 0.0137-2.35 0.0118-4.71 0.0283-7.06 0.0488-0.375 0.855-0.75 1.71-1.14 2.59-0.512 1.1-1.02 2.21-1.55 3.35-0.748 1.65-0.748 1.65-1.51 3.34-1.8 2.72-1.8 2.72-4.51 3.6-1.14 0.0599-1.14 0.0599-2.29 0.121 0.601-4.53 1.79-8.39 3.51-12.6 0.251-0.622 0.501-1.24 0.76-1.88 0.8-1.98 1.61-3.96 2.42-5.93 0.523-1.29 1.05-2.58 1.57-3.87 1.04-2.58 2.09-5.16 3.14-7.74 2.56-6.31 5.08-12.6 7.6-19z"/>
<path transform="translate(922,745)" d="m0 0h2c5.16 10.4 9.69 20.9 13.9 31.7 0.484 1.22 0.969 2.43 1.47 3.69 0.453 1.16 0.905 2.32 1.37 3.51 0.607 1.55 0.607 1.55 1.23 3.13 1 2.99 1.57 5.86 2 8.98-3.17-0.939-4.68-1.54-6.58-4.31-0.406-0.887-0.812-1.77-1.23-2.69-0.419-0.887-0.838-1.77-1.27-2.69-0.918-2.31-0.918-2.31-0.918-4.31-10.4 0.495-10.4 0.495-21 1-1.32 2.64-2.64 5.28-4 8-2.25 4.5-2.25 4.5-6 6-1.37-3.58-0.889-5.79 0.52-9.2 0.752-1.69 1.52-3.37 2.29-5.05 0.833-1.86 1.66-3.73 2.49-5.59 0.659-1.48 0.659-1.48 1.33-3 2.89-6.68 5.52-13.5 8.18-20.2 0.402-1.02 0.805-2.04 1.22-3.08 0.356-0.908 0.713-1.82 1.08-2.75 0.889-2.08 0.889-2.08 1.89-3.08z"/>
<path transform="translate(580,745)" d="m0 0c4.12 3.45 5.65 7.26 7.57 12.1 0.32 0.792 0.64 1.58 0.97 2.4 0.675 1.67 1.34 3.35 2.01 5.03 1.01 2.54 2.03 5.07 3.05 7.6 3.16 7.86 6.18 15.6 8.4 23.8-4.83-0.791-4.83-0.791-6.33-2.67-0.304-0.686-0.608-1.37-0.922-2.08-0.315-0.675-0.629-1.35-0.953-2.05-0.797-2.2-0.797-2.2-1.8-7.2-7.59 0.33-15.2 0.66-23 1-0.99 3.3-1.98 6.6-3 10-0.66 0.99-1.32 1.98-2 3-1.65-0.33-3.3-0.66-5-1 0.384-0.955 0.384-0.955 0.775-1.93 1.22-3.04 2.44-6.09 3.66-9.13 0.448-1.12 0.896-2.23 1.36-3.38 2.3-5.74 4.58-11.5 6.8-17.3 0.405-1.05 0.81-2.1 1.23-3.18 0.773-2.01 1.54-4.02 2.31-6.03 0.349-0.904 0.698-1.81 1.06-2.74 0.454-1.19 0.454-1.19 0.918-2.41 0.895-1.94 0.895-1.94 2.89-3.94z"/>
<path transform="translate(1066 749)" d="m0 0c6.81 6.18 11.3 12.8 11.8 22.1-0.163 6.36-1.8 12.2-5.92 17.1-4.05 3.75-8.23 5.52-13.5 7.14-0.581 0.187-1.16 0.374-1.76 0.566-3.28 0.635-6.54 0.578-9.86 0.559-0.681 0.00387-1.36 0.00773-2.06 0.0117-5.06-0.01-5.06-0.01-7.31-1.14-0.0506-6.8-0.0857-13.6-0.11-20.4-0.0101-2.31-0.0237-4.63-0.041-6.94-0.0242-3.32-0.0356-6.64-0.0444-9.96-0.0103-1.04-0.0206-2.08-0.0313-3.15-1.51e-4 -0.961-3.02e-4 -1.92-4.58e-4 -2.91-0.00444-0.848-0.00888-1.7-0.0135-2.57 0.241-2.06 0.241-2.06 2.24-4.06 8.01-2.01 19.7-1.27 26.6 3.62zm-22.6 3.38c-0.188 2.79-0.256 5.47-0.23 8.25 4.58e-4 0.816 9.16e-4 1.63 0.00139 2.47 0.00302 1.73 0.0109 3.45 0.0233 5.18 0.0183 2.65 0.0205 5.3 0.0203 7.95 0.00491 1.67 0.0107 3.35 0.0176 5.02 0.00111 0.798 0.00223 1.6 0.00337 2.42-0.312 3.65-0.312 3.65 1.16 6.7 9.3 0.622 16.5-0.0196 24-6 3.91-6.46 4.01-12.6 3-20-2.42-5.9-6.27-10.1-12-13-4.83-1.26-12.3-2.72-16 1z"/>
<path transform="translate(1210,747)" d="m0 0c6.44 4.16 10.8 9.62 13 17 1.11 7.9 0.671 14.9-3.38 21.9-4.14 5.43-9.1 8.3-15.6 10.1-9.39 1.25-16.4-0.309-24-6-5.71-5.33-8.41-10.5-9.02-18.3 0.0695-8.06 3.39-15 9.02-20.7 9.23-7.24 19.2-9.18 30-4zm-27 7.94c-5.5 5.67-6.26 11.1-6.15 18.7 0.359 5.8 2.89 8.62 7.15 12.4 6.4 4.61 11.2 5.81 19 5 6.11-1.78 10.6-5.65 14-11 2.16-6.55 1.77-13.1-1.12-19.3-2.89-5.12-5.47-8.34-11.1-10.6-8.18-2.26-14.8 0.334-21.8 4.82z"/>
<path transform="translate(972,745)" d="m0 0c4.2 2.1 5.19 3.26 7.75 7.02 1.04 1.51 1.04 1.51 2.09 3.04 0.712 1.05 1.42 2.11 2.16 3.19 0.712 1.04 1.42 2.08 2.16 3.14 2.76 4.04 5.51 8.06 8.09 12.2 1.75 2.77 1.75 2.77 5.75 4.39v-31c1.32-0.66 2.64-1.32 4-2 3.74 3.74 2.06 17.8 2.06 22.9-0.0124 2.69-0.0353 5.38-0.0625 8.06-0.0268 2.71-0.0466 5.42-0.0625 8.12-0.0116 1.18-0.0232 2.36-0.0352 3.57 0.0944 3.19 0.493 6.17 1.1 9.3-5.64-3.19-8.72-7.22-12.4-12.5-0.565-0.797-1.13-1.59-1.71-2.42-3.93-5.57-7.7-11.2-11.3-17-1.49-2.37-1.49-2.37-4.59-3.09v33c-1.65-0.33-3.3-0.66-5-1v-49z"/>
<path transform="translate(634 745)" d="m0 0c1.12 0.0105 2.24 0.0209 3.4 0.0317 1.82 0.00967 1.82 0.00967 3.67 0.0195 1.27 0.0168 2.54 0.0335 3.85 0.0508 1.28 0.00902 2.56 0.018 3.88 0.0273 3.17 0.0236 6.33 0.0566 9.5 0.0977 0.33 1.65 0.66 3.3 1 5-0.992 0.0376-0.992 0.0376-2 0.0759-2.98 0.116-5.96 0.238-8.93 0.362-1.56 0.059-1.56 0.059-3.15 0.119-1.48 0.0628-1.48 0.0628-3 0.127-0.916 0.0367-1.83 0.0733-2.78 0.111-2.12-0.0246-2.12-0.0246-3.13 1.21-0.0991 2.33-0.13 4.67-0.125 7-0.00387 1.92-0.00387 1.92-0.00781 3.88-0.226 2.99-0.226 2.99 1.13 4.12 1.45 0.133 2.91 0.203 4.37 0.246 1.33 0.0493 1.33 0.0493 2.68 0.0996 1.87 0.0609 3.75 0.118 5.62 0.172 1.33 0.0512 1.33 0.0512 2.69 0.104 0.816 0.0251 1.63 0.0501 2.47 0.0759 2.16 0.303 2.16 0.303 5.16 2.3-0.66 0.99-1.32 1.98-2 3-2.14 0.417-2.14 0.417-4.75 0.477-1.4 0.0464-1.4 0.0464-2.84 0.0938-0.98 0.018-1.96 0.0361-2.97 0.0547-1.94 0.0508-3.88 0.105-5.82 0.164-0.862 0.0176-1.72 0.0351-2.61 0.0532-2.01-0.0614-2.01-0.0614-3.01 1.16-0.0732 2.53-0.0923 5.03-0.0625 7.56 0.0206 2.45 0.0412 4.91 0.0625 7.44 7.26 0.33 14.5 0.66 22 1 0.33 1.32 0.66 2.64 1 4-4.11 0.0247-8.22 0.0428-12.3 0.0549-1.4 0.00504-2.8 0.0119-4.2 0.0205-2.01 0.0121-4.02 0.0173-6.02 0.0222-1.21 0.00524-2.42 0.0105-3.67 0.0159-2.78-0.114-2.78-0.114-3.78-1.11-0.103-1.46-0.139-2.93-0.145-4.4-0.00638-0.934-0.0128-1.87-0.0193-2.83-0.00111-1.02-0.00223-2.03-0.00337-3.08-0.00499-1.56-0.00499-1.56-0.0101-3.14-0.00507-2.2-0.00741-4.4-0.00725-6.59-0.00219-3.37-0.0203-6.75-0.0393-10.1-0.00293-2.13-0.00492-4.26-0.00586-6.39-0.00719-1.01-0.0144-2.03-0.0218-3.07 0.00308-0.938 0.00615-1.88 0.00932-2.84-0.00143-0.827-0.00285-1.65-0.00432-2.51 0.413-3.37 1.7-3.97 4.95-4.25z"/>
<path transform="translate(510 745)" d="m0 0c1.12 0.0105 2.24 0.0209 3.4 0.0317 1.82 0.00967 1.82 0.00967 3.67 0.0195 1.27 0.0168 2.54 0.0335 3.85 0.0508 1.28 0.00902 2.56 0.018 3.88 0.0273 3.17 0.0236 6.33 0.0566 9.5 0.0977 0.33 1.65 0.66 3.3 1 5-0.692 0.0251-1.38 0.0501-2.1 0.0759-3.11 0.116-6.23 0.238-9.34 0.362-1.63 0.059-1.63 0.059-3.3 0.119-1.03 0.0419-2.07 0.0838-3.13 0.127-0.958 0.0367-1.92 0.0733-2.9 0.111-2.2-0.0363-2.2-0.0363-3.22 1.21-0.0731 2.53-0.0925 5.03-0.0625 7.56 0.00451 0.711 0.00902 1.42 0.0137 2.15 0.0118 1.76 0.0298 3.52 0.0488 5.28 0.59-0.0105 1.18-0.0209 1.79-0.0317 2.67-0.0416 5.35-0.0676 8.02-0.0933 1.39-0.0251 1.39-0.0251 2.81-0.0508 0.893-0.00645 1.79-0.0129 2.71-0.0195 0.822-0.0105 1.64-0.0209 2.49-0.0317 2.18 0.227 2.18 0.227 5.18 2.23v4c-0.992 0.0376-0.992 0.0376-2 0.0759-2.98 0.116-5.96 0.238-8.93 0.362-1.04 0.0393-2.08 0.0786-3.15 0.119-0.989 0.0419-1.98 0.0838-3 0.127-0.916 0.0367-1.83 0.0733-2.78 0.111-2.12-0.0246-2.12-0.0246-3.13 1.21-0.157 1.49-0.251 2.98-0.316 4.47-0.0419 0.899-0.0838 1.8-0.127 2.72-0.059 1.42-0.059 1.42-0.119 2.87-0.0648 1.42-0.0648 1.42-0.131 2.88-0.106 2.35-0.208 4.71-0.307 7.06-1.65-0.33-3.3-0.66-5-1-0.0506-6.66-0.0857-13.3-0.11-20-0.0101-2.27-0.0237-4.53-0.041-6.8-0.0242-3.25-0.0356-6.5-0.0444-9.75-0.0103-1.02-0.0206-2.04-0.0313-3.08-1.51e-4 -0.941-3.02e-4 -1.88-4.58e-4 -2.85-0.00444-0.831-0.00888-1.66-0.0135-2.52 0.401-3.38 1.69-3.98 4.95-4.25z"/>
<path transform="translate(793 771)" d="m0 0c1.72 0.0213 1.72 0.0213 3.48 0.043 1.71 0.00967 1.71 0.00967 3.46 0.0195 6.33 0.336 6.33 0.336 8.88 2.89 1.55 2.75 1.78 4.63 1.85 7.78 0.0425 0.938 0.0851 1.88 0.129 2.84-0.691 2.66-0.691 2.66-3.24 4.98-4.06 1.97-6.77 2.12-11.3 1.99-0.68-0.00967-1.36-0.0193-2.06-0.0293-4.96-0.114-4.96-0.114-6.13-1.28-0.127-2.82-0.185-5.61-0.188-8.44-0.0122-0.79-0.0245-1.58-0.0371-2.39-0.00526-2.06 0.103-4.12 0.225-6.17 2-2 2-2 4.9-2.23z" fill="#FDFDFD"/>
<path transform="translate(860 749)" d="m0 0c0.753 0.0786 1.51 0.157 2.28 0.238 2.41 0.488 4.14 1.14 6.22 2.45 3.13 5.4 3.52 8.94 2 15-2.54 2.82-4.02 3-7.86 3.33-1.44-0.0106-2.89-0.0371-4.33-0.0781-0.737-0.00516-1.47-0.0103-2.23-0.0156-5.43-0.0799-5.43-0.0799-6.58-1.23-0.127-2.82-0.185-5.61-0.188-8.44-0.0122-0.79-0.0245-1.58-0.0371-2.39-0.00526-2.06 0.103-4.12 0.225-6.17 3.2-3.2 6.14-3.19 10.5-2.69z" fill="#FDFDFD"/>
<path transform="translate(390 750)" d="m0 0c0.947 0.0155 1.89 0.0309 2.87 0.0469 5.93 0.447 5.93 0.447 8.42 2.92 1.56 2.81 1.64 4.65 1.58 7.85-0.00387 0.95-0.00773 1.9-0.0117 2.88-0.301 2.56-0.301 2.56-2.3 5.56-3.93 2.1-7.34 2.24-11.8 2.19-1.15-0.00645-2.3-0.0129-3.48-0.0195-2.77-0.168-2.77-0.168-3.77-1.17-0.154-2.81-0.232-5.57-0.25-8.38-0.0206-0.781-0.0412-1.56-0.0625-2.37-0.0398-5.81-0.0398-5.81 1.67-7.99 2.36-1.83 4.13-1.6 7.08-1.52z" fill="#FDFDFD"/>
<path transform="translate(693,745)" d="m0 0c0.99 0.33 1.98 0.66 3 1 0.33 14.5 0.66 29 1 44 5.28 0.33 10.6 0.66 16 1 0.33 1.32 0.66 2.64 1 4-3.65 0.0289-7.29 0.0468-10.9 0.0625-1.56 0.0126-1.56 0.0126-3.15 0.0254-0.989 0.00322-1.98 0.00645-3 0.00977-1.37 0.00786-1.37 0.00786-2.78 0.0159-2.13-0.114-2.13-0.114-3.13-1.11-0.103-1.46-0.139-2.93-0.145-4.4-0.00638-0.934-0.0128-1.87-0.0193-2.83-0.00111-1.02-0.00223-2.03-0.00337-3.08-0.00499-1.56-0.00499-1.56-0.0101-3.14-0.00507-2.2-0.00741-4.4-0.00725-6.59-0.00219-3.37-0.0203-6.75-0.0393-10.1-0.00293-2.13-0.00492-4.26-0.00586-6.39-0.00719-1.01-0.0144-2.03-0.0218-3.07 0.00308-0.938 0.00615-1.88 0.00932-2.84-0.00143-0.827-0.00285-1.65-0.00432-2.51 0.247-2.02 0.247-2.02 2.25-4.02z"/>
<path transform="translate(796 750)" d="m0 0c1.14-0.04 2.28-0.0799 3.46-0.121 3.16 0.559 3.16 0.559 5.55 2.86 2.09 3.49 2.13 5.69 1.61 9.7-1.05 1.7-1.05 1.7-3 3-2.63 0.244-5 0.329-7.62 0.25-1.04-0.00773-1.04-0.00773-2.1-0.0156-5.12-0.08-5.12-0.08-6.27-1.23-0.125-1.98-0.176-3.96-0.188-5.94-0.0142-1.08-0.0284-2.16-0.043-3.28 0.461-5.57 3.82-5.13 8.61-5.22z" fill="#FDFDFD"/>
<path transform="translate(923,756)" d="m0 0c2.72 3.26 4.18 6.55 5.69 10.5 0.655 1.69 0.655 1.69 1.32 3.41 0.988 3.09 0.988 3.09 0.988 7.09h-15c-1.41-4.22 0.261-7.1 1.81-11.1 0.274-0.733 0.548-1.47 0.83-2.22 2.08-5.44 2.08-5.44 4.36-7.72z" fill="#FDFDFD"/>
<path transform="translate(1124,757)" d="m0 0c3.51 2.71 4.42 6.5 5.69 10.6 0.225 0.685 0.45 1.37 0.682 2.08 1.63 5.05 1.63 5.05 1.63 7.36-4.95 0.33-9.9 0.66-15 1-1.2-4.79-0.0283-7.29 1.81-11.6 0.274-0.681 0.548-1.36 0.83-2.06 1.19-2.88 2.13-5.09 4.36-7.31z" fill="#FDFDFD"/>
<path transform="translate(455,757)" d="m0 0c6.17 4.84 7.77 12.6 9 20h-15c-1.41-4.24 0.304-7.15 1.88-11.1 0.282-0.741 0.565-1.48 0.855-2.25 2.11-5.47 2.11-5.47 3.27-6.63z" fill="#FDFDFD"/>
<path transform="translate(580,757)" d="m0 0c3.92 2.62 4.68 5.74 6.19 10 0.409 1.11 0.409 1.11 0.826 2.23 1.99 5.46 1.99 5.46 1.99 7.77h-15c-1.2-4.82 0.0105-7.33 1.88-11.7 0.282-0.689 0.565-1.38 0.855-2.09 2.1-5.05 2.1-5.05 3.27-6.22z" fill="#FDFDFD"/>
<path transform="translate(1123,731)" d="m0 0c2.62 1.94 2.62 1.94 5 4 2.18 0.778 2.18 0.778 4 1 0.33-0.99 0.66-1.98 1-3h2c0.0425 2 0.0408 4 0 6-1.57 1.57-3.14 1.24-5.31 1.31-4.36-0.0138-4.36-0.0138-6.94-2.38-0.578-0.639-1.15-1.28-1.75-1.94-2.58 0.0833-2.58 0.0833-5 1-0.99 0.33-1.98 0.66-3 1 0.312-2.38 0.312-2.38 1-5 3.51-2.34 4.86-2.5 9-2z"/>
</svg>
