<?xml version="1.0" encoding="UTF-8"?>
<svg version="1.1" viewBox="0 0 1600 1600" width="1280" height="1280" xmlns="http://www.w3.org/2000/svg">
<path transform="translate(0)" d="m0 0h1600v1600h-1600v-1600z" fill="#000102"/>
<path transform="translate(939 829)" d="m0 0c0.869-0.00694 1.74-0.0139 2.63-0.021 0.951 0.0128 1.9 0.0256 2.88 0.0388 1-0.00219 2.01-0.00438 3.04-0.00664 3.32-0.00232 6.65 0.024 9.97 0.0508 2.3 0.00492 4.61 0.00822 6.91 0.00996 4.83 0.00765 9.65 0.0282 14.5 0.0591 6.2 0.0396 12.4 0.0576 18.6 0.0673 5.9 0.00995 11.8 0.0299 17.7 0.0511 1.7 0.00509 1.7 0.00509 3.43 0.0103 3.19 0.0115 6.38 0.03 9.57 0.051 1.43 0.00403 1.43 0.00403 2.89 0.00815 0.864 0.00716 1.73 0.0143 2.62 0.0217 0.755 0.00427 1.51 0.00855 2.29 0.0129 1.72 0.134 1.72 0.134 2.72 1.13 0.103 1.47 0.138 2.95 0.145 4.42 0.0103 1.43 0.0103 1.43 0.0209 2.89 0.00392 1.58 0.00392 1.58 0.00792 3.2 0.00669 1.11 0.0134 2.21 0.0203 3.35 0.0141 2.41 0.026 4.82 0.0359 7.24 0.0164 3.82 0.0396 7.64 0.0649 11.5 0.0709 10.9 0.131 21.7 0.182 32.6 0.0315 6.64 0.0732 13.3 0.12 19.9 0.016 2.53 0.0283 5.06 0.0369 7.59 0.0122 3.55 0.0364 7.1 0.0631 10.6 5.89e-4 1.04 0.00118 2.08 0.00179 3.14 0.0976 9.84 0.904 20.6 7.84 28.2 10.2 9.27 22.4 10.8 35.7 10.2 25.1-1.8 48-10.7 65.8-28.9 16.4-18.9 22.4-42.5 22.4-67.1 4.53e-4 -0.672 9.06e-4 -1.34 0.00137-2.04-0.028-14.2-1.77-27.5-6.89-40.7-0.482-2.15-0.482-2.15 0.518-7.15h116c4.56 9.12 4.56 9.12 6.12 14.3 0.312 0.995 0.624 1.99 0.945 3.02 7.03 28.2 3.99 59.3-10.9 84.5-16.3 25.3-40.4 42.5-68.2 53.2-0.665 0.257-1.33 0.515-2.01 0.78-42.5 16.1-87.9 15.8-133 15.7-7.1-0.0252-14.2-0.0277-21.3-0.0294-12.7-0.00384-25.3-0.0261-38-0.0598-12.3-0.0326-24.5-0.0537-36.8-0.0615-0.761-4.85e-4 -1.52-9.71e-4 -2.3-0.00147-3.06-0.00193-6.12-0.00384-9.17-0.00572-11.7-0.00751-23.5-0.0231-35.2-0.0405-3.54-0.00523-7.08-0.0102-10.6-0.0144-8.04-0.00964-16.1-0.0242-24.1-0.0468-2.44-0.00614-4.87-0.0106-7.31-0.0132-3.31-0.00396-6.62-0.014-9.92-0.0259-0.976 1.84e-4 -1.95 3.69e-4 -2.96 5.59e-4 -0.879-0.00446-1.76-0.00892-2.66-0.0135-0.764-0.00179-1.53-0.00358-2.31-0.00542-1.74-0.129-1.74-0.129-2.74-1.13-0.463-6.14-0.463-6.14 1.17-9.19 2.45-2.43 3.94-2.39 7.35-2.54 1.65-0.0923 1.65-0.0923 3.33-0.187 1.74-0.0759 1.74-0.0759 3.53-0.153 15.2-0.935 26.6-2.09 38.4-12.4 8.55-10 8.49-22.2 8.46-34.9 0.00523-1.16 0.0105-2.31 0.0158-3.5 0.0102-2.48 0.016-4.97 0.0179-7.45 0.00369-3.93 0.0205-7.86 0.0408-11.8 0.0489-9.75 0.0801-19.5 0.101-29.2 0.018-8.27 0.0473-16.5 0.094-24.8 0.0117-2.61 0.0176-5.21 0.0177-7.82 1.91e-4 -3.63 0.0184-7.26 0.0406-10.9-0.00458-1.08-0.00915-2.16-0.0139-3.27 0.00965-0.988 0.0193-1.98 0.0292-2.99 0.00302-1.29 0.00302-1.29 0.00609-2.6 0.777-4.74 2.88-6.82 7.64-6.8z" fill="#FDFDFD"/>
<path transform="translate(876 543)" d="m0 0c1.32-0.00145 1.32-0.00145 2.66-0.00293 0.975 0.0143 1.95 0.0286 2.95 0.0433 1.57 0.00479 1.57 0.00479 3.18 0.00967 3.61 0.0144 7.21 0.0504 10.8 0.0855 2.64 0.0146 5.28 0.0279 7.92 0.0395 5.2 0.0243 10.4 0.0548 15.6 0.0912 11.9 0.0832 23.9 0.121 35.8 0.153 19.4 0.0538 38.7 0.128 58.1 0.214 12.4 0.0554 24.8 0.105 37.2 0.146 8.88 0.0299 17.8 0.0671 26.6 0.11 5.25 0.0249 10.5 0.0468 15.7 0.0606 41.6 0.114 41.6 0.114 59.2 2.4 1.31 0.16 2.61 0.319 3.96 0.484 19.4 2.45 37.1 6.15 54.3 15.6 1.62 0.878 3.25 1.72 4.89 2.56 6.06 3.15 11.9 6.65 16.9 11.4v2c0.562 0.228 1.12 0.456 1.7 0.691 15.5 8.86 26.1 31.2 31.7 47.6 0.358 1.06 0.358 1.06 0.723 2.14 3.09 9.69 4.27 19.2 4.21 29.4-0.00491 1.05-0.00983 2.1-0.0149 3.17-0.236 15.7-3.63 35.4-15.3 47.1-2.53 0.125-5.02 0.186-7.55 0.205-0.792 0.0099-1.58 0.0198-2.4 0.03-2.64 0.0318-5.29 0.0565-7.93 0.0811-1.85 0.0206-3.7 0.0416-5.55 0.063-3.9 0.0441-7.8 0.085-11.7 0.123-4.93 0.0485-9.86 0.102-14.8 0.158-19.4 0.219-38.7 0.425-58.1 0.339-0.33-0.66-0.66-1.32-1-2 0.852-2.32 1.76-4.55 2.75-6.81 10.4-24.9 10.6-57 0.625-82.2-8.77-19.2-23.4-33-42.9-40.8-21.7-7.24-43.7-7.16-66.5-7.16-0.33 45.5-0.66 91.1-1 138-17.3 0.186-34.6 0.371-52.4 0.562-5.47 0.0613-10.9 0.123-16.6 0.186-6.66 0.068-6.66 0.068-9.77 0.0985-2.18 0.0224-4.37 0.0467-6.55 0.0726-3.3 0.0388-6.6 0.0713-9.9 0.102-0.98 0.013-1.96 0.0259-2.97 0.0393-0.883 0.00702-1.77 0.014-2.68 0.0213-1.16 0.0124-1.16 0.0124-2.34 0.0251-1.76-0.107-1.76-0.107-2.76-1.11-1.15-9.63-1.12-19.3-1.06-29 0.0049-1.41 0.00921-2.82 0.013-4.23 0.00841-2.96 0.0193-5.92 0.032-8.88 0.0314-7.65 0.0354-15.3 0.037-22.9 1.84e-4 -0.747 3.69e-4 -1.49 5.59e-4 -2.26 6.38e-4 -11.2-0.0125-22.4-0.283-33.6-0.048-2.02-0.0835-4.04-0.118-6.05-0.395-13.3-2.98-24.9-12.2-34.9-12.1-8.86-27-9.4-41.3-9.76-0.88-0.028-1.76-0.0561-2.67-0.085-0.793-0.0187-1.59-0.0374-2.4-0.0566-1.96-0.287-1.96-0.287-3.96-2.29-0.577-7.27-0.577-7.27 1.26-9.6 2.17-1.74 3.22-1.77 5.98-1.74z" fill="#FDFDFD"/>
<path transform="translate(307 544)" d="m0 0c1.02-0.00483 2.05-0.00966 3.1-0.0146 3.45-0.0113 6.9 0.00609 10.3 0.0233 2.47-0.00215 4.93-0.00602 7.4-0.0115 6.02-0.00871 12 0.00123 18.1 0.0197 7.04 0.0208 14.1 0.0206 21.1 0.0197 12.6-1e-3 25.2 0.0173 37.8 0.0464 12.2 0.028 24.3 0.0423 36.5 0.041 1.12-1.2e-4 1.12-1.2e-4 2.26-2.42e-4 0.744-8.07e-5 1.49-1.61e-4 2.25-2.45e-4 13.9-0.00139 27.8 0.0105 41.7 0.0283 4.88 0.00597 9.75 0.00815 14.6 0.00906 6.62 0.00153 13.2 0.0145 19.8 0.0343 2.41 0.00575 4.81 0.00832 7.22 0.00714 51.5-0.0156 113 2.12 152 40.2 1.75 1.95 3.36 3.98 4.99 6.05 0.919 1.08 1.84 2.16 2.77 3.23 16.9 19.9 25.9 43.7 27.2 69.8 0.0793 1.33 0.0793 1.33 0.16 2.69 0.223 7.44-0.55 14.7-1.47 22.1-0.118 0.97-0.235 1.94-0.356 2.94-0.126 0.943-0.252 1.89-0.382 2.86-0.165 1.25-0.165 1.25-0.333 2.53-0.856 4.07-2.3 7.99-3.62 11.9-53.5 0.495-53.5 0.495-108 1-0.886-4.43-1.04-5.9-0.125-10 6.5-33 2.35-71.2-16.4-99.5-5.26-7.61-11.7-12.8-19.5-17.5-0.789-0.499-1.58-0.998-2.39-1.51-28.7-16.4-67.3-11.5-97.6-11.5-0.495 68.8-0.495 68.8-1 139-17.1 0.206-34.2 0.413-51.8 0.625-5.4 0.0704-10.8 0.141-16.4 0.213-6.59 0.0725-6.59 0.0725-9.67 0.104-2.16 0.0239-4.31 0.0517-6.47 0.0828-3.26 0.0462-6.53 0.0797-9.79 0.11-0.964 0.0166-1.93 0.0331-2.92 0.0502-0.877 0.00564-1.75 0.0113-2.66 0.0171-0.764 0.00922-1.53 0.0184-2.32 0.0279-1.99-0.23-1.99-0.23-4.99-2.23-0.382-1.79-0.382-1.79-0.392-4.01-0.0111-0.838-0.0222-1.68-0.0336-2.54 0.00301-0.921 0.00601-1.84 0.00911-2.79-0.0129-1.45-0.0129-1.45-0.026-2.94-0.0252-3.22-0.0295-6.45-0.034-9.67-0.0143-2.25-0.0301-4.49-0.0472-6.74-0.042-5.94-0.0669-11.9-0.0875-17.8-0.0357-9.45-0.0974-18.9-0.158-28.3-0.0189-3.28-0.0308-6.57-0.0414-9.85 1.1-30.4 1.1-30.4-12.2-56.3-10.9-8.7-26-9.24-39.4-9.69-3.84-0.327-6.97-1.14-10.6-2.31-1.31-5.23-1.31-5.23-0.135-8.17 3.54-3.03 7.48-2.37 12-2.32z" fill="#FDFDFD"/>
<path transform="translate(525,829)" d="m0 0c15.7-0.21 31.3-0.369 47-0.466 7.27-0.0464 14.5-0.11 21.8-0.213 6.34-0.0898 12.7-0.148 19-0.168 3.36-0.0117 6.71-0.0391 10.1-0.105 3.75-0.0654 7.5-0.0743 11.2-0.0702 1.66-0.0485 1.66-0.0485 3.35-0.0981 7.38 0.0889 7.38 0.0889 10.7 3.05 1.8 2.28 3.32 4.58 4.81 7.07 0.964 1.36 1.94 2.72 2.92 4.07 0.945 1.35 1.89 2.7 2.83 4.05 3.87 5.53 7.8 11 11.8 16.4 5.25 7.11 10.3 14.4 15.2 21.7 3.56 5.2 7.13 10.4 11 15.4 3.52 4.64 6.77 9.47 10.1 14.3 3.49 5.11 7.1 10.1 10.8 15 1.36 2.04 1.36 2.04 1.36 4.04h2c1.23 1.77 1.23 1.77 2.75 4.38 12.5 20.3 28.9 42.3 52.9 48.6 2.27 0.498 4.54 0.965 6.83 1.39 0.82 0.211 1.64 0.423 2.48 0.641 1.26 2.52 1.1 4.31 1.06 7.12-0.00902 0.91-0.018 1.82-0.0273 2.76-0.0174 1.05-0.0174 1.05-0.0352 2.12-20.3 0.517-40.7 0.821-61 1-0.874 0.00801-1.75 0.016-2.65 0.0243-11.3 0.101-22.5 0.156-33.8 0.118-4.66-0.0153-9.33-0.0159-14 0.0209-4.44 0.034-8.88 0.0242-13.3-0.018-1.64-0.00841-3.29-0.00161-4.93 0.0216-12.5 0.162-12.5 0.162-17.1-3.11-2.05-2.26-3.69-4.47-5.28-7.06-0.488-0.71-0.977-1.42-1.48-2.15-0.927-1.35-1.83-2.72-2.71-4.09-2.41-3.67-4.95-7.24-7.5-10.8-3.97-5.59-7.89-11.2-11.8-16.9-4.44-6.5-9.02-12.9-13.6-19.3-4.25-5.86-8.44-11.8-12.6-17.7-2.66-3.78-5.34-7.55-8.04-11.3-4.37-6.08-8.62-12.2-12.8-18.4-3.48-5.12-6.99-10.2-10.8-15.1-5.88-7.71-11.3-15.7-16.8-23.7-2.27-3.29-4.56-6.55-6.91-9.78-0.647-0.896-0.647-0.896-1.31-1.81-1.1-1.52-2.21-3.02-3.32-4.53-1.31-2.43-1.31-2.43-0.89-4.58 0.192-0.61 0.384-1.22 0.582-1.85z" fill="#FDFDFD"/>
<path transform="translate(362 829)" d="m0 0c0.764 5.45e-4 1.53 0.00109 2.31 0.00165 0.876-0.00419 1.75-0.00839 2.66-0.0127 1.45 0.00843 1.45 0.00843 2.92 0.017 1.52-0.00285 1.52-0.00285 3.07-0.00575 3.36-0.00372 6.72 0.00701 10.1 0.0182 2.33 0.00119 4.65 0.00165 6.98 0.00139 4.88 0.00157 9.76 0.00987 14.6 0.0233 6.27 0.017 12.5 0.0208 18.8 0.0201 4.8 2.71e-4 9.61 0.00575 14.4 0.013 2.31 0.00319 4.63 0.00516 6.94 0.00589 3.23 0.00216 6.45 0.0109 9.68 0.0216 1.45-6.8e-4 1.45-6.8e-4 2.93-0.00137 0.874 0.00426 1.75 0.00853 2.65 0.0129 1.15 0.00251 1.15 0.00251 2.31 0.00508 1.74 0.129 1.74 0.129 2.74 1.13 0.115 3.14 0.165 6.26 0.174 9.4 0.00669 0.989 0.0134 1.98 0.0203 3 0.0141 2.16 0.026 4.32 0.0359 6.48 0.0164 3.44 0.0397 6.88 0.0649 10.3 0.0707 9.78 0.13 19.6 0.182 29.3 0.0322 5.98 0.0736 12 0.12 17.9 0.0158 2.26 0.0282 4.52 0.0369 6.79 0.0439 11.3 0.271 22.5 1.26 33.8 0.077 0.886 0.154 1.77 0.233 2.68 0.67 6.84 1.43 13.8 5.43 19.6 1.6 2.34 2.53 3.96 3.44 6.69 1.83 1.09 1.83 1.09 4 2 2.17 1.25 4.33 2.51 6.49 3.78 5.45 2.64 11.1 3.56 17.1 4.28 0.686 0.0838 1.37 0.168 2.08 0.254 5.85 0.688 11.7 1.07 17.6 1.34 2.79 0.344 2.79 0.344 5.79 2.34 0.293 2.38 0.293 2.38 0.188 5.12-0.0406 1.37-0.0406 1.37-0.082 2.76-0.0348 0.699-0.0696 1.4-0.105 2.12-29.7 0.0228-59.3 0.0405-89 0.0511-3.5 0.00125-7 0.00255-10.5 0.00387-0.697 2.62e-4 -1.39 5.25e-4 -2.11 7.95e-4 -11.3 0.00436-22.6 0.0122-33.9 0.0214-11.6 0.00934-23.2 0.0148-34.7 0.0169-6.51 0.00131-13 0.0044-19.5 0.0116-6.12 0.00676-12.2 0.00889-18.4 0.00738-2.25 2.77e-4 -4.5 0.00228-6.76 0.0061-3.06 0.00493-6.12 0.0038-9.18 0.00105-0.904 0.00291-1.81 0.00583-2.74 0.00883-6.11-0.015-6.11-0.015-7.23-1.13-0.168-2-0.168-2-0.188-4.44-0.0142-0.803-0.0284-1.61-0.043-2.43 0.23-2.13 0.23-2.13 2.23-4.13 2.26-0.379 2.26-0.379 5.06-0.562 1.03-0.0748 2.05-0.15 3.11-0.227 1.62-0.104 1.62-0.104 3.27-0.211 23-1.46 23-1.46 41.6-14 4.76-5.9 5.49-12.4 6.11-19.7 0.0836-0.961 0.167-1.92 0.253-2.91 0.85-10.7 0.947-21.3 0.971-32 0.00845-3.6 0.0291-7.2 0.0525-10.8 0.0558-8.91 0.0918-17.8 0.128-26.7 0.0312-7.59 0.0702-15.2 0.12-22.8 0.0201-3.55 0.0284-7.09 0.0363-10.6 0.013-2.15 0.0265-4.31 0.0406-6.46-9.82e-4 -0.987-0.00196-1.97-0.00298-2.99 0.00827-0.897 0.0165-1.79 0.0251-2.72 0.0044-1.17 0.0044-1.17 0.00889-2.37 0.367-2.73 1.39-3.79 4.12-4.15z" fill="#FDFDFD"/>
<path transform="translate(802 741)" d="m0 0c3.86 1.08 6.02 2.2 8.92 5.03 1.99 4.84 2.11 9.33 1.44 14.5-1.02 2.34-1.02 2.34-2 4 0.65 0.818 0.65 0.818 1.31 1.65 3.54 4.8 5.54 8.29 5.08 14.3-0.747 3.8-2.31 6.09-5.23 8.57-7.44 4.96-18.6 3.92-27.2 3.44-1.59-1.59-1.15-3.26-1.18-5.47-0.0128-0.951-0.0257-1.9-0.0389-2.88-0.00739-1.04-0.0148-2.07-0.0224-3.14-0.00807-1.06-0.0161-2.11-0.0245-3.2-0.0139-2.24-0.0246-4.48-0.0324-6.72-0.0172-3.44-0.0611-6.87-0.105-10.3-0.0101-2.17-0.0186-4.35-0.0254-6.52-0.0175-1.03-0.035-2.06-0.0531-3.13 0.00293-0.958 0.00585-1.92 0.00887-2.9-0.00587-0.843-0.0117-1.69-0.0178-2.55 0.488-2.18 0.488-2.18 2.35-3.95 4.89-2.81 11.4-1.71 16.8-0.76z" fill="#FDFDFD"/>
<path transform="translate(383 742)" d="m0 0c0.78 6.45e-4 1.56 0.00129 2.36 0.00195 1.22 0.0242 1.22 0.0242 2.46 0.0488 0.803-0.00322 1.61-0.00645 2.43-0.00977 5.2 0.0472 9.42 0.281 13.5 3.91 0.49 0.59 0.98 1.18 1.48 1.79 0.75 0.878 0.75 0.878 1.52 1.77 2.64 3.96 2.63 8.21 2.23 12.9-2.6 6.28-6.06 8.87-12 12 2.73 5.14 5.88 9.51 9.61 14 1.39 2.02 1.39 2.02 1.39 5.02-6.23-0.777-9.06-4.4-13-9-6-7.99-6-7.99-6-11-1.98 0.66-3.96 1.32-6 2-0.33 5.61-0.66 11.2-1 17-1.65-0.33-3.3-0.66-5-1-0.796-2.82-1.13-5.34-1.16-8.26-0.00961-0.831-0.0192-1.66-0.0291-2.52-0.00425-0.889-0.0085-1.78-0.0129-2.69-0.0057-0.919-0.0114-1.84-0.0173-2.79-0.00943-1.94-0.016-3.88-0.0198-5.82-0.00974-2.97-0.0408-5.95-0.0723-8.92-0.00653-1.89-0.0118-3.77-0.0156-5.66-0.0123-0.891-0.0247-1.78-0.0374-2.7 3e-3 -0.828 6e-3 -1.66 0.00909-2.51-0.00547-1.09-0.00547-1.09-0.011-2.2 0.795-4.17 3.49-5.31 7.42-5.29z" fill="#FDFDFD"/>
<path transform="translate(852 742)" d="m0 0c0.81 0.00322 1.62 0.00645 2.46 0.00977 0.791-0.0161 1.58-0.0322 2.4-0.0488 6.03-0.00498 11.1 0.716 15.7 5.05 3.34 5.39 4.23 10 3.22 16.3-1.31 2.94-1.31 2.94-3 5-0.433 0.577-0.866 1.15-1.31 1.75-2.41 1.79-4.75 1.92-7.69 2.25 0.144 0.577 0.289 1.15 0.438 1.75 0.521 2.08 1.04 4.17 1.56 6.25h2c1.69 2.05 1.69 2.05 3.56 4.75 0.62 0.882 1.24 1.76 1.88 2.67 1.39 2.29 2.11 3.97 2.56 6.58-9.27-2.9-14.4-10.7-19.5-18.6-1.78-2.01-1.78-2.01-6.52-1.43-0.33 5.94-0.66 11.9-1 18h-4c-3.52-3.52-2.08-17.8-2.12-22.8 0.0518-5.65 0.241-11.3 0.5-16.9 0.0462-1.18 0.0462-1.18 0.0933-2.39 0.376-7.1 1.67-8.12 8.76-8.19z" fill="#FDFDFD"/>
<path transform="translate(455,742)" d="m0 0h2c2.95 5.71 5.48 11.5 7.81 17.4 0.696 1.76 1.39 3.52 2.09 5.29 0.348 0.879 0.696 1.76 1.05 2.66 1.88 4.71 3.83 9.38 5.78 14.1 1.58 3.81 3.01 7.63 4.26 11.6-2.99-0.294-4.5-0.443-7-2-2.18-3.56-3.49-7.08-5-11h-20l-6 12c-1.65-0.33-3.3-0.66-5-1 2.1-6.64 4.58-13.1 7.25-19.5 0.392-0.95 0.784-1.9 1.19-2.88 0.799-1.94 1.6-3.87 2.4-5.81 1.1-2.66 2.19-5.32 3.27-7.99 0.321-0.786 0.641-1.57 0.972-2.38 0.601-1.47 1.2-2.95 1.8-4.43 2.01-4.9 2.01-4.9 3.12-6.02z" fill="#FDFDFD"/>
<path transform="translate(1214,747)" d="m0 0c6.28 6.21 9.13 11.6 9.38 20.5-0.242 8.47-2.96 13.4-8.36 19.7-5.33 4.76-10.5 5.38-17.3 5.36-1.27-0.00363-1.27-0.00363-2.56-0.00732-6.8-0.201-11.3-1.59-16.1-6.56-0.949-0.908-1.9-1.82-2.88-2.75-4.2-6.42-5.93-13.1-4.83-20.7 2.05-7.34 6.43-13.3 12.7-17.5 10.1-5.12 21.1-5.52 30 2zm-31.8 6.97c-4.5 5.69-5.66 10.2-5.55 17.4 0.755 5.84 4.16 10 8.71 13.6 6 3.37 13 2.78 19.6 2 3.22-0.91 4.35-1.75 7-4 0.501-0.416 1-0.833 1.52-1.26 4.22-4.43 4.2-9.99 4.15-15.8-0.283-5.29-1.41-8.6-5.01-12.4-6.14-5.47-9.32-6.91-17.6-6.82-5.69 0.615-9.12 3.14-12.9 7.31z" fill="#FDFDFD"/>
<path transform="translate(922,742)" d="m0 0c3 1 3 1 4.12 2.97 0.346 0.86 0.692 1.72 1.05 2.61 0.396 0.968 0.792 1.94 1.2 2.93 0.624 1.57 0.624 1.57 1.26 3.18 0.649 1.6 0.649 1.6 1.31 3.24 0.905 2.23 1.81 4.47 2.7 6.71 1.32 3.26 2.66 6.51 4.02 9.75 0.416 0.998 0.831 2 1.26 3.02 0.795 1.91 1.59 3.82 2.39 5.72 0.355 0.861 0.71 1.72 1.08 2.61 0.313 0.753 0.627 1.51 0.95 2.28 0.667 1.98 0.667 1.98 0.667 4.98-2.32-0.191-2.32-0.191-5-1-1.58-2.21-1.58-2.21-2.81-4.94-0.628-1.34-0.628-1.34-1.27-2.71-0.918-2.35-0.918-2.35-0.918-4.35-7.26 0.33-14.5 0.66-22 1-0.66 1.98-1.32 3.96-2 6-0.97 2.01-1.96 4.02-3 6-1.65-0.33-3.3-0.66-5-1 3.68-10.1 7.63-20.1 11.7-30.1 0.475-1.17 0.951-2.35 1.44-3.56 0.457-1.12 0.913-2.24 1.38-3.39 0.61-1.5 0.61-1.5 1.23-3.02 1.31-3.03 2.75-5.97 4.26-8.91z" fill="#FDFDFD"/>
<path transform="translate(1123,742)" d="m0 0c1.91 0.718 1.91 0.718 4 2 0.893 2.04 0.893 2.04 1.48 4.51 1.44 5.4 3.53 10.2 5.9 15.3 9.99 21.8 9.99 21.8 9.62 28.2-1.8-0.152-1.8-0.152-4-1-2.38-3.5-4.09-7.22-6-11h-20c-1.98 3.96-3.96 7.92-6 12-1.65-0.33-3.3-0.66-5-1 2.53-8.16 5.78-16 9.04-23.9 0.958-2.32 1.91-4.63 2.86-6.95 0.614-1.49 1.23-2.98 1.84-4.47 0.281-0.685 0.563-1.37 0.853-2.07 1.65-3.96 3.43-7.82 5.4-11.6z" fill="#FDFDFD"/>
<path transform="translate(579,742)" d="m0 0h3c11.8 27.3 11.8 27.3 16.2 38.4 0.418 1.05 0.418 1.05 0.844 2.12 1.48 3.82 2.45 7.45 2.97 11.5-6.38-3.26-8.11-7.53-11-14-6.93-0.33-13.9-0.66-21-1-0.66 1.98-1.32 3.96-2 6-0.949 2.36-1.98 4.67-3 7-1.65-0.33-3.3-0.66-5-1 1.76-6.96 4.38-13.4 7.3-19.9 2.37-5.31 4.51-10.7 6.56-16.1 1.65-4.36 3.39-8.68 5.13-13z" fill="#FDFDFD"/>
<path transform="translate(1045 742)" d="m0 0c8.95 0.0239 16.5 0.196 23.6 6.37 5.86 6.12 8.8 11.7 9.04 20.1-0.293 7.68-2.87 13.4-8.31 18.9-5.62 3.82-11.2 5.83-18 6-0.936 0.0387-1.87 0.0773-2.84 0.117-7.71 0.182-7.71 0.182-11.2-2.12-0.374-2.01-0.374-2.01-0.372-4.51-0.00623-0.934-0.0125-1.87-0.0189-2.83 0.00921-1.01 0.0184-2.02 0.0279-3.07-4.99e-4 -1.04-9.97e-4 -2.07-0.00151-3.14 0.00234-2.19 0.0121-4.38 0.0286-6.58 0.0236-3.36 0.0206-6.73 0.0139-10.1 0.00558-2.13 0.0127-4.25 0.0215-6.38-9.11e-4 -1.01-0.00182-2.02-0.00276-3.07 0.00953-0.934 0.0191-1.87 0.0289-2.83 0.00691-1.24 0.00691-1.24 0.014-2.5 0.61-4.71 3.98-4.31 7.97-4.39zm-1.71 7.38c-0.2 2.77-0.28 5.44-0.266 8.22-0.00191 0.814-0.00383 1.63-0.0058 2.47-0.00136 1.72 0.00234 3.44 0.0107 5.16 0.0107 2.64 1.05e-4 5.28-0.0127 7.92 0.00132 1.67 0.00388 3.34 0.00781 5.01-0.00405 0.793-0.0081 1.59-0.0123 2.4-0.133 4.38-0.133 4.38 2.28 7.82 6.31 0.563 12.3-0.164 18-3 3.94-3.49 7.77-7.35 8.24-12.8 0.153-6.96 0.0951-12.6-4.24-18.2-4.88-4.64-8.95-6.24-15.6-6.75-1.15-0.098-2.29-0.196-3.48-0.297-3.03-0.287-3.03-0.287-4.9 2.05z" fill="#FDFDFD"/>
<path transform="translate(1e3 742)" d="m0 0c0.99 0.33 1.98 0.66 3 1v48c-5.62-2.25-5.62-2.25-8.05-5.75-0.795-1.13-0.795-1.13-1.61-2.27-0.546-0.798-1.09-1.6-1.66-2.42-0.569-0.809-1.14-1.62-1.72-2.45-1.14-1.62-2.27-3.24-3.4-4.86-2.06-2.96-4.15-5.89-6.25-8.81-0.903-1.27-0.903-1.27-1.82-2.57-1.36-1.98-1.36-1.98-3.49-2.87v33c-1.65-0.33-3.3-0.66-5-1v-48c4.94 1.24 5.3 2.39 8 6.56 0.78 1.18 1.56 2.35 2.35 3.52 0.42 0.629 0.841 1.26 1.27 1.9 2.51 3.66 5.16 7.21 7.82 10.8 0.52 0.703 1.04 1.41 1.58 2.13 0.489 0.653 0.978 1.31 1.48 1.98 0.435 0.582 0.87 1.16 1.32 1.76 1.16 1.52 1.16 1.52 3.19 2.38 0.0198-0.898 0.0396-1.8 0.0601-2.72 0.078-3.33 0.165-6.66 0.257-9.99 0.0383-1.44 0.0732-2.88 0.104-4.32 0.0456-2.07 0.104-4.14 0.164-6.21 0.0314-1.25 0.0628-2.49 0.0952-3.78 0.319-2.98 0.319-2.98 2.32-4.98z" fill="#FCFCFC"/>
<path transform="translate(634 742)" d="m0 0c1.12 0.0105 2.24 0.0209 3.4 0.0317 1.82 0.00967 1.82 0.00967 3.67 0.0195 1.27 0.0168 2.54 0.0335 3.85 0.0508 1.28 0.00902 2.56 0.018 3.88 0.0273 3.17 0.0236 6.33 0.0566 9.5 0.0977 0.33 1.65 0.66 3.3 1 5-0.992 0.0376-0.992 0.0376-2 0.0759-2.98 0.116-5.96 0.238-8.93 0.362-1.56 0.059-1.56 0.059-3.15 0.119-1.48 0.0628-1.48 0.0628-3 0.127-0.916 0.0367-1.83 0.0733-2.78 0.111-2.12-0.0246-2.12-0.0246-3.13 1.21-0.0727 2.35-0.0837 4.71-0.0625 7.06 0.0206 2.29 0.0412 4.58 0.0625 6.94 7.26 0.66 14.5 1.32 22 2 0.33 1.32 0.66 2.64 1 4-0.992 0.0376-0.992 0.0376-2 0.0759-2.98 0.116-5.96 0.238-8.93 0.362-1.04 0.0393-2.08 0.0786-3.15 0.119-0.989 0.0419-1.98 0.0838-3 0.127-0.916 0.0367-1.83 0.0733-2.78 0.111-2.12-0.0246-2.12-0.0246-3.13 1.21-0.0733 2.7-0.0922 5.37-0.0625 8.06 0.0206 2.62 0.0412 5.24 0.0625 7.94 7.59 0.33 15.2 0.66 23 1 0.33 1.32 0.66 2.64 1 4-7.05 0.76-14 1.11-21.1 1.12-0.746 0.00451-1.49 0.00902-2.26 0.0137-5.37-0.0148-5.37-0.0148-7.61-1.14-0.0506-6.8-0.0857-13.6-0.11-20.4-0.0101-2.31-0.0237-4.63-0.041-6.94-0.0242-3.32-0.0356-6.64-0.0444-9.96-0.0103-1.04-0.0206-2.08-0.0313-3.15-1.51e-4 -0.961-3.02e-4 -1.92-4.58e-4 -2.91-0.00444-0.848-0.00888-1.7-0.0135-2.57 0.396-3.4 1.66-4.01 4.95-4.29z" fill="#FDFDFD"/>
<path transform="translate(509 742)" d="m0 0c1.16 0.0105 2.33 0.0209 3.52 0.0317 1.89 0.00967 1.89 0.00967 3.81 0.0195 1.98 0.0251 1.98 0.0251 4 0.0508 1.34 0.01 2.68 0.0192 4.02 0.0273 3.29 0.0236 6.57 0.0566 9.86 0.0977 0.33 1.65 0.66 3.3 1 5-0.692 0.0251-1.38 0.0501-2.1 0.0759-3.11 0.116-6.23 0.238-9.34 0.362-1.63 0.059-1.63 0.059-3.3 0.119-1.03 0.0419-2.07 0.0838-3.13 0.127-0.958 0.0367-1.92 0.0733-2.9 0.111-2.2-0.0363-2.2-0.0363-3.22 1.21-0.0727 2.35-0.0837 4.71-0.0625 7.06 0.00902 1.29 0.018 2.58 0.0273 3.91 0.0116 0.999 0.0232 2 0.0352 3.03 2.73 0.908 4.62 1.18 7.45 1.32 1.27 0.0628 1.27 0.0628 2.57 0.127 0.881 0.0393 1.76 0.0786 2.67 0.119 1.34 0.0648 1.34 0.0648 2.71 0.131 2.2 0.106 4.4 0.208 6.61 0.307 0.33 1.65 0.66 3.3 1 5-0.992 0.0376-0.992 0.0376-2 0.0759-2.98 0.116-5.96 0.238-8.93 0.362-1.04 0.0393-2.08 0.0786-3.15 0.119-0.989 0.0419-1.98 0.0838-3 0.127-0.916 0.0367-1.83 0.0733-2.78 0.111-2.12-0.0246-2.12-0.0246-3.13 1.21-0.157 1.49-0.251 2.98-0.316 4.47-0.0419 0.899-0.0838 1.8-0.127 2.72-0.059 1.42-0.059 1.42-0.119 2.87-0.0648 1.42-0.0648 1.42-0.131 2.88-0.106 2.35-0.208 4.71-0.307 7.06-4.88-0.875-4.88-0.875-6-2-0.103-1.43-0.138-2.87-0.145-4.3-0.00638-0.914-0.0128-1.83-0.0193-2.77-0.00111-0.995-0.00223-1.99-0.00337-3.01-0.00333-1.01-0.00666-2.03-0.0101-3.08-0.00507-2.15-0.00741-4.3-0.00725-6.45-0.00219-3.3-0.0203-6.6-0.0393-9.9-0.00293-2.09-0.00492-4.17-0.00586-6.26-0.00719-0.993-0.0144-1.99-0.0218-3.01 0.00461-1.38 0.00461-1.38 0.00932-2.78-0.00143-0.81-0.00285-1.62-0.00432-2.45 0.426-3.41 1.78-3.94 5.04-4.21z" fill="#FDFDFD"/>
<path transform="translate(799 767)" d="m0 0c4.14 0.14 6.79 0.54 9.69 3.57 1.79 2.78 2.34 4.89 2.12 8.19-1.15 3.88-1.95 5.41-5.12 7.81-2.97 1.49-5.7 1.17-9 1.19-1.89 0.0213-1.89 0.0213-3.81 0.043-3.19-0.23-3.19-0.23-5.19-2.23-0.199-2.71-0.278-5.29-0.25-8-0.00773-0.737-0.0155-1.47-0.0234-2.23 0.0317-8.68 3.79-8.3 11.6-8.34z" fill="#000102"/>
<path transform="translate(863,747)" d="m0 0c3.68 1.57 6.12 3.44 8 7 0.415 3.8 0.305 6.28-1.19 9.81-2.17 2.62-3.58 3.16-6.81 4.19-3.04 0.266-3.04 0.266-6.19 0.25-1.05 0.00516-2.09 0.0103-3.17 0.0156-2.64-0.266-2.64-0.266-4.64-2.27-0.252-2.69-0.37-5.24-0.375-7.94-0.0245-0.729-0.049-1.46-0.0742-2.21-0.018-3.28-0.0286-5.3 2.16-7.83 4.04-1.8 7.95-1.54 12.3-1.02z" fill="#000102"/>
<path transform="translate(390 747)" d="m0 0c1.04-0.0168 2.08-0.0335 3.14-0.0508 4.38 0.523 6.97 2.29 10 5.36 0.301 2.46 0.301 2.46 0.312 5.38 0.0168 0.956 0.0335 1.91 0.0508 2.9-0.419 3.14-1.17 4.47-3.36 6.73-3 1-5.23 1.23-8.38 1.31-0.936 0.0374-1.87 0.0748-2.84 0.113-3.75-0.572-5.3-1.57-7.79-4.43-0.266-2.82-0.266-4.88 0.0625-7.62 0.0535-0.681 0.107-1.36 0.162-2.06 0.615-6.55 2.2-7.6 8.59-7.62z" fill="#000102"/>
<path transform="translate(693,742)" d="m0 0c0.99 0.33 1.98 0.66 3 1 0.33 14.9 0.66 29.7 1 45h17c0.33 1.32 0.66 2.64 1 4-4.81 0.953-9.37 1.15-14.2 1.12-1.08 0.0058-1.08 0.0058-2.18 0.0117-5.32-0.00996-5.32-0.00996-7.57-1.14-0.0506-6.8-0.0857-13.6-0.11-20.4-0.0101-2.31-0.0237-4.63-0.041-6.94-0.0242-3.32-0.0356-6.64-0.0444-9.96-0.0103-1.04-0.0206-2.08-0.0313-3.15-1.51e-4 -0.961-3.02e-4 -1.92-4.58e-4 -2.91-0.00444-0.848-0.00888-1.7-0.0135-2.57 0.241-2.06 0.241-2.06 2.24-4.06z" fill="#FDFDFD"/>
<path transform="translate(792 747)" d="m0 0c0.962 0.00516 1.92 0.0103 2.91 0.0156 1.43-0.00773 1.43-0.00773 2.9-0.0156 2.8 0.273 4.39 0.723 6.73 2.27 2.46 3.69 2.39 5.63 2 10-1.83 2.62-2.91 2.97-6 4-1.85 0.0936-3.71 0.13-5.56 0.125-0.971 0.00258-1.94 0.00516-2.94 0.00781-2.5-0.133-2.5-0.133-4.5-1.13-0.0539-2.12-0.0927-4.25-0.125-6.38-0.0232-1.18-0.0464-2.37-0.0703-3.59 0.243-3.77 0.816-4.89 4.66-5.3z" fill="#000102"/>
<path transform="translate(580,754)" d="m0 0c3.25 2.9 4.82 5.34 6.25 9.44 0.335 0.927 0.67 1.85 1.02 2.81 0.734 2.75 0.734 2.75 0.734 7.75h-15c0.766-5.36 1.44-8.61 3.5-13.4 0.443-1.04 0.887-2.08 1.34-3.15 1.16-2.48 1.16-2.48 2.16-3.48z" fill="#000102"/>
<path transform="translate(456,754)" d="m0 0c2.27 2.81 3.75 5.45 5.06 8.81 0.481 1.22 0.481 1.22 0.973 2.46 1.13 3.2 2.03 6.47 2.96 9.73-5.61-0.33-11.2-0.66-17-1l-1-2c1.03-2.73 2.11-5.35 3.31-8 0.322-0.737 0.643-1.47 0.975-2.23 2.44-5.49 2.44-5.49 4.71-7.77z" fill="#000102"/>
<path transform="translate(922,754)" d="m0 0h2c0.991 2.02 1.97 4.04 2.94 6.06 0.545 1.13 1.09 2.25 1.65 3.41 1.41 3.53 1.41 3.53 2.41 10.5h-15c-1.41-4.24 0.304-7.15 1.88-11.1 0.282-0.741 0.565-1.48 0.855-2.25 2.11-5.47 2.11-5.47 3.27-6.63z" fill="#000102"/>
<path transform="translate(1123,755)" d="m0 0c0.99 0.33 1.98 0.66 3 1 1.21 2.65 2.23 5.2 3.19 7.94 0.273 0.742 0.545 1.48 0.826 2.25 1.99 5.49 1.99 5.49 1.99 7.81h-15c-1.38-4.15 0.251-6.79 1.88-10.6 0.423-1.04 0.423-1.04 0.855-2.1 2.11-5.11 2.11-5.11 3.27-6.27z" fill="#000102"/>
<path transform="translate(1123,728)" d="m0 0c0.825 0.681 1.65 1.36 2.5 2.06 2.41 2.32 2.41 2.32 5.81 1.69 0.887-0.247 1.77-0.495 2.69-0.75 0.625 1.88 0.625 1.88 1 4-2 2-2 2-5.38 2.25-3.26-0.225-4.93-0.526-7.62-2.25v-2c-2.97-0.495-2.97-0.495-6-1v5l-3-3c2.08-5.8 3.78-6.61 10-6z" fill="#FDFDFD"/>
</svg>
