<?xml version="1.0" encoding="utf-8"?>
<!-- Generator: Adobe Illustrator 25.1.0, SVG Export Plug-In . SVG Version: 6.00 Build 0)  -->
<svg version="1.1" id="Layer_1" xmlns="http://www.w3.org/2000/svg" xmlns:xlink="http://www.w3.org/1999/xlink" x="0px" y="0px"
	 viewBox="0 0 226.8 89.7" style="enable-background:new 0 0 226.8 89.7;" xml:space="preserve">
<style type="text/css">
	.st0{fill:#480DA3;}
	.st1{fill:#5926BC;}
	.st2{fill:#E04BA3;}
	.st3{fill:#EA6CBD;}
</style>
<g>
	<g>
		<g>
			<g>
				<g>
					<path class="st0" d="M77.8,50c0-5.9,4.9-8.9,16.1-10.1c-0.1-2.9-1.3-5.4-5-5.4c-2.7,0-5.3,1.2-7.7,2.7l-2.4-4.3
						c3-1.9,6.9-3.6,11.2-3.6c6.8,0,10.2,4.2,10.2,11.8v16.2H95l-0.5-3h-0.2c-2.4,2.1-5.3,3.7-8.5,3.7C81,58,77.8,54.7,77.8,50z
						 M93.8,50v-6.1c-7.4,0.9-9.9,2.9-9.9,5.6c0,2.4,1.6,3.5,3.9,3.5C90.1,52.9,91.8,51.9,93.8,50z"/>
					<path class="st0" d="M134.1,30h2.7c2,0,3.7,1.7,3.7,3.7v23.6h-6.4V30z"/>
					<path class="st0" d="M147.3,50.3V18h2.7c2,0,3.7,1.7,3.7,3.7v28.9c0,1.6,0.7,2.1,1.4,2.1c0.3,0,0.5,0,1-0.1l0.8,4.8
						c-0.8,0.3-1.8,0.6-3.4,0.6C148.9,58,147.3,55,147.3,50.3z"/>
					<path class="st0" d="M160.7,47.1V30h6.4v16.3c0,4.5,1.3,6.2,4.3,6.2c2.4,0,4-1.1,6.1-3.8V30h2.7c2,0,3.7,1.7,3.7,3.7v23.6h-5.3
						l-0.5-4h-0.2c-2.4,2.8-5.1,4.7-8.8,4.7C163.2,58,160.7,54,160.7,47.1z"/>
					<path class="st0" d="M187.8,54.2l3-4.1c2.4,1.9,4.8,3,7.5,3c3,0,4.4-1.4,4.4-3.3c0-2.3-3-3.3-5.9-4.4c-3.6-1.3-7.7-3.4-7.7-8
						c0-4.7,3.8-8.2,9.9-8.2c3.8,0,6.9,1.5,9.1,3.3l-2.9,3.9c-1.9-1.4-3.8-2.4-6-2.4c-2.7,0-4.1,1.3-4.1,3c0,2.2,2.8,3,5.7,4.1
						c3.7,1.4,7.8,3.2,7.8,8.3c0,4.7-3.7,8.5-10.6,8.5C194.4,58,190.5,56.4,187.8,54.2z"/>
					<path class="st0" d="M120.6,53h-4.9c-3.3,0-4.4-0.9-4.4-2.5c0-1.2,0.5-1.9,1.3-2.6c1.2,0.5,2.5,0.7,3.7,0.7
						c5.8,0,10.4-3.2,10.4-9.3c0-1.9-0.7-3.6-1.6-4.6h5v-1.1c0-2-1.7-4.3-3.7-4.3c0,0-8.9-0.1-10.1-0.1c-5.7,0-10.8,3.5-10.8,9.8
						c0,3.2,1.7,5.8,3.6,7.2v0.2c-1.6,1.1-3,3-3,5.1c0,2.2,1.1,3.7,2.5,4.6v0.2c-2.5,1.5-3.9,3.5-3.9,5.8c0,4.8,4.9,7.1,11.4,7.1
						c8.9,0,14.6-4.3,14.6-9.6C130.6,55,127.2,53,120.6,53z M116.4,33.7c2.7,0,4.7,2,4.7,5.4c0,3.5-2.1,5.5-4.7,5.5s-4.7-2-4.7-5.5
						C111.6,35.7,113.7,33.7,116.4,33.7z M117,65.2c-4.3,0-7-1.4-7-3.9c0-1.3,0.6-2.5,2.1-3.6c1,0.3,2.2,0.4,3.7,0.4h3.8
						c3.1,0,4.8,0.6,4.8,2.7C124.4,63.2,121.4,65.2,117,65.2z"/>
				</g>
			</g>
		</g>
	</g>
	<g>
		<polygon class="st0" points="36.9,32.4 45.9,19.2 72.8,58.3 54.8,58.3 		"/>
		<polygon class="st1" points="19,58.3 36.9,32.4 45.8,45.2 36.9,58.3 		"/>
		<polyline class="st2" points="45.7,70.8 36.9,58.3 45.9,45.1 		"/>
		<polyline class="st3" points="45.9,45.1 54.8,58.3 45.7,70.8 		"/>
	</g>
</g>
</svg>
